<?xml version="1.0" encoding="utf-8"?>
<!-- Generator: Adobe Illustrator 19.0.0, SVG Export Plug-In . SVG Version: 6.00 Build 0)  -->
<svg version="1.1" id="Layer_1" xmlns="http://www.w3.org/2000/svg" xmlns:xlink="http://www.w3.org/1999/xlink" x="0px" y="0px"
	 viewBox="0 0 78.4 77.1" style="enable-background:new 0 0 78.4 77.1;" xml:space="preserve">
<style type="text/css">
	.st0{fill:#F7941E;}
	.st1{fill:#58595B;}
</style>
<g id="XMLID_296_">
	<g id="XMLID_297_">
		<path id="XMLID_298_" class="st0" d="M29.1,15.1c-3.7,1.6-3.8,4.9-3.8,6.1c5-4.8,11.6-3.8,11.6-3.8s-9.8,2.2-13.2,8.3
			c-0.3,0.5,0.9,1.3,1.2,0.7c1-1.7,2.4-2.9,2.4-2.9c1.7,0.8,4.6,1.9,6.9,0.7c3.1-1.7,3.3-6.1,7.5-7.8C42.6,16,34,12.9,29.1,15.1
			L29.1,15.1z M29.1,15.1"/>
	</g>
</g>
<path id="XMLID_293_" class="st1" d="M75.3,37c0-1.3-0.1-2.5-0.4-3.7c-0.2-1.2-0.6-2.4-1-3.5c-0.7-1.6-1.6-3.1-2.7-4.4
	c-1.1-1.4-2.4-2.5-3.9-3.5c-1.5-1-3.1-1.7-4.8-2.3c-1.7-0.5-3.5-0.8-5.4-0.8c-2.5,0-4.8,0.5-7,1.4c-2.2,0.9-4.1,2.2-5.8,3.9
	c-1.6,1.6-2.9,3.5-3.9,5.7c-0.9,2.2-1.4,4.5-1.4,7c0,0.3,0,1.7,0.1,2.2c0.2,2.3,0.9,4.4,1.9,6.3c0.3,0.6,0.6,1.1,1,1.7
	c0.1,0.1,0.2,0.2,0.3,0.4c0.2,0.3,0.5,0.7,0.7,1c0.1,0.2,0.3,0.3,0.4,0.5c0.2,0.3,0.4,0.5,0.7,0.7c0.2,0.2,0.4,0.4,0.6,0.6
	c0.1,0.1,0.2,0.2,0.3,0.3c0.1,0.1,0.2,0.1,0.3,0.2c0.2,0.2,0.5,0.4,0.7,0.6c0.2,0.2,0.4,0.3,0.6,0.5c0.2,0.2,0.5,0.4,0.8,0.5
	c0.2,0.1,0.4,0.3,0.7,0.4c0.3,0.1,0.5,0.3,0.8,0.4c0.3,0.1,0.6,0.3,0.8,0.4c0.2,0.1,0.4,0.2,0.6,0.3c0.1,0,0.2,0.1,0.3,0.1
	c0.4,0.2,0.8,0.3,1.2,0.4c0,0,0,0,0,0c1.7,0.5,3.4,0.8,5.3,0.8c0,0,0,0,0.1,0c0,0,0,0,0,0c0.1,0,0.1,0,0.2,0c0.5,0,0.9,0,1.4-0.1
	c0.2,0,0.4,0,0.6-0.1c0,0,0.1,0,0.1,0c0.1,0,0.2,0,0.3-0.1c3-0.4,5.8-1.6,8.2-3.3l0,0.1l-0.1,0c0,0.1,0,0.2,0.1,0.3
	c0,0,0.1,6.2-0.9,8.7c-0.5,1.3-1.3,2.4-2.3,3.4c-1,1-2.1,1.7-3.4,2.3c-1.3,0.6-2.6,0.8-4.1,0.8c-1.4,0-2.8-0.3-4.1-0.8
	c-1.3-0.6-2.4-1.3-3.4-2.2c-1-0.9-1.7-2.1-2.3-3.3c-0.6-1.3-0.8-2.7-0.8-4.2h-7.5c0,2.5,0.5,4.9,1.4,7.1c0.9,2.2,2.2,4.1,3.9,5.8
	c1.6,1.6,3.6,2.9,5.8,3.9c2.2,0.9,4.5,1.4,7.1,1.4c2.5,0,4.9-0.5,7.1-1.4c2.2-0.9,4.1-2.2,5.8-3.9c1.6-1.6,2.9-3.6,3.9-5.8
	c0.9-2.2,1.4-4.5,1.4-7h0v-0.1C75.3,55.6,75.3,37,75.3,37z M57.1,47.5c0,0-1.5-0.1-2.2-0.2c-0.3-0.1-0.6-0.1-0.9-0.2c0,0,0,0,0,0
	c-0.2-0.1-0.4-0.1-0.6-0.2c-0.1-0.1-0.3-0.1-0.4-0.2c0,0-0.1,0-0.1-0.1c-1.2-0.5-2.3-1.3-3.2-2.2c-1.9-1.9-3-4.5-3-7.4
	c0-5.8,4.7-10.5,10.5-10.5S67.7,31.2,67.7,37C67.7,42.8,63,47.5,57.1,47.5z"/>
<path id="XMLID_263_" class="st1" d="M17.5,12.2c-1.3,0.6-2.5,1.3-3.5,2.3c-1,1-1.8,2.1-2.3,3.4c-0.6,1.3-0.9,2.7-0.9,4.2v0.4
	c3.1-2.3,6.7-3.5,10.9-3.5v7.5c-1.3,0-2.5,0.2-3.6,0.6c-1.1,0.4-2.1,1-3.1,1.7c-1.1,0.9-2.1,2-2.9,3.3c-0.8,1.3-1.2,2.7-1.4,4.3
	v19.7H3.1V37.5v-1.3v-14c0-2.5,0.4-4.9,1.4-7.2c1-2.3,2.3-4.2,4-5.9c1.7-1.7,3.7-3,5.9-4c2.3-1,4.7-1.5,7.2-1.5v7.8
	C20.2,11.3,18.8,11.6,17.5,12.2z"/>
<path id="XMLID_257_" class="st1" d="M35.5,42.7v13.4h-7.7V33.6c0,0,0-0.5,0-0.7c0-6.3,7.7-6.4,7.7-6.4V42.7z"/>
</svg>
