<?xml version="1.0" encoding="utf-8"?>
<!-- Generator: Adobe Illustrator 19.0.0, SVG Export Plug-In . SVG Version: 6.00 Build 0)  -->
<svg version="1.1" id="Layer_1" xmlns="http://www.w3.org/2000/svg" xmlns:xlink="http://www.w3.org/1999/xlink" x="0px" y="0px"
	 viewBox="0 0 258 163.3" style="enable-background:new 0 0 258 163.3;" xml:space="preserve">
<style type="text/css">
	.st0{fill:#7F141C;}
</style>
<g>
	<g id="XMLID_35_">
		<path id="XMLID_75_" class="st0" d="M38.3,89h0.2l13.9-38.9h3.8L40.1,93.6h-3.4L20.5,50.1h3.9L38.3,89z"/>
		<path id="XMLID_73_" class="st0" d="M76.7,93.6h-3.4L57.1,50.1h3.8L76.7,93.6z"/>
		<path id="XMLID_71_" class="st0" d="M111.2,93.6h-3.6L82.9,56.4l-0.2,0v37.2h-3.6V50.1h3.6l24.7,37.1l0.2,0V50.1h3.6V93.6z"/>
		<path id="XMLID_69_" class="st0" d="M142.4,90.6h22.4v3h-26V50.1h3.6V90.6z"/>
		<path id="XMLID_67_" class="st0" d="M176.1,90.6h22.4v3h-26V50.1h3.6V90.6z"/>
		<path id="XMLID_64_" class="st0" d="M229.5,81.4h-19.1L206,93.6h-3.7l16-43.5h3.4l15.9,43.5h-3.7L229.5,81.4z M211.5,78.3h16.8
			l-8.2-23h-0.2L211.5,78.3z"/>
		<rect id="XMLID_39_" x="53.8" y="74.1" class="st0" width="6.7" height="6.7"/>
		<path id="XMLID_36_" class="st0" d="M126.6,93.6H123V50.1h3.6V93.6z"/>
	</g>
	<g id="XMLID_20_">
		<path id="XMLID_32_" class="st0" d="M103.4,108v5.2h-2.1v-12.5h4.3c1.4,0,2.5,0.3,3.2,0.9c0.8,0.6,1.1,1.5,1.1,2.7
			c0,0.6-0.2,1.2-0.5,1.7c-0.3,0.5-0.8,0.8-1.5,1.1c0.7,0.2,1.2,0.6,1.5,1.1c0.3,0.5,0.5,1.1,0.5,1.9v1c0,0.4,0,0.7,0.1,1.1
			c0.1,0.4,0.2,0.6,0.5,0.8v0.2h-2.2c-0.2-0.2-0.4-0.5-0.4-0.9c-0.1-0.4-0.1-0.8-0.1-1.2v-1c0-0.6-0.2-1.2-0.6-1.5
			c-0.4-0.4-0.9-0.6-1.5-0.6H103.4z M103.4,106.4h2.1c0.8,0,1.4-0.2,1.8-0.5c0.4-0.3,0.6-0.8,0.6-1.5c0-0.6-0.2-1.1-0.6-1.5
			c-0.4-0.4-1-0.5-1.7-0.5h-2.2V106.4z"/>
		<path id="XMLID_30_" class="st0" d="M119.5,107.6h-4.9v4h5.8v1.7h-7.9v-12.5h7.8v1.7h-5.7v3.5h4.9V107.6z"/>
		<path id="XMLID_27_" class="st0" d="M128.8,110.3h-4.4l-1,2.9h-2.2l4.4-12.5h2l4.3,12.5h-2.2L128.8,110.3z M124.9,108.6h3.3
			l-1.6-4.9h-0.1L124.9,108.6z"/>
		<path id="XMLID_25_" class="st0" d="M135.5,111.6h5.9v1.7h-8v-12.5h2.1V111.6z"/>
		<path id="XMLID_23_" class="st0" d="M150.1,102.4h-3.9v10.9h-2.1v-10.9h-3.8v-1.7h9.8V102.4z"/>
		<path id="XMLID_21_" class="st0" d="M156.1,106.8l3-6.1h2.3l-4.3,8.1v4.4h-2.1v-4.5l-4.3-8h2.3L156.1,106.8z"/>
	</g>
	<g id="XMLID_17_">
		<line id="XMLID_19_" class="st0" x1="95" y1="108.6" x2="27.3" y2="108.6"/>
		<rect id="XMLID_18_" x="27.3" y="107.5" class="st0" width="67.8" height="2.3"/>
	</g>
	<g id="XMLID_1_">
		<line id="XMLID_16_" class="st0" x1="234.5" y1="108.6" x2="166.7" y2="108.6"/>
		<rect id="XMLID_3_" x="166.7" y="107.5" class="st0" width="67.8" height="2.3"/>
	</g>
</g>
</svg>
