<?xml version="1.0" encoding="utf-8"?>
<!-- Generator: Adobe Illustrator 19.0.0, SVG Export Plug-In . SVG Version: 6.00 Build 0)  -->
<svg version="1.1" id="Layer_1" xmlns="http://www.w3.org/2000/svg" xmlns:xlink="http://www.w3.org/1999/xlink" x="0px" y="0px"
	 viewBox="0 0 258 163.3" style="enable-background:new 0 0 258 163.3;" xml:space="preserve">
<style type="text/css">
	.st0{fill:#7F141C;}
	.st1{fill:#FFFFFF;}
</style>
<g id="XMLID_80_">
	<rect id="XMLID_1_" x="-1" y="-0.6" class="st0" width="260" height="164.6"/>
	<g id="XMLID_3_">
		<g id="XMLID_47_">
			<path id="XMLID_62_" class="st1" d="M41.6,82.3h0.2l13.3-37.1h3.7L43.3,86.7h-3.2L24.7,45.3h3.7L41.6,82.3z"/>
			<path id="XMLID_60_" class="st1" d="M78.2,86.7H75L59.6,45.3h3.7L78.2,86.7z"/>
			<path id="XMLID_58_" class="st1" d="M111.1,86.7h-3.4L84.2,51.2l-0.2,0v35.4h-3.4V45.3H84l23.5,35.4l0.2,0V45.3h3.4V86.7z"/>
			<path id="XMLID_56_" class="st1" d="M140.9,83.8h21.4v2.9h-24.8V45.3h3.4V83.8z"/>
			<path id="XMLID_54_" class="st1" d="M173,83.8h21.4v2.9h-24.8V45.3h3.4V83.8z"/>
			<path id="XMLID_51_" class="st1" d="M223.9,75.1h-18.2l-4.2,11.6H198l15.2-41.4h3.2l15.1,41.4H228L223.9,75.1z M206.8,72.1h16
				l-7.9-22h-0.2L206.8,72.1z"/>
			<rect id="XMLID_50_" x="56.4" y="68.2" class="st1" width="6.3" height="6.3"/>
			<path id="XMLID_48_" class="st1" d="M125.8,86.7h-3.4V45.3h3.4V86.7z"/>
		</g>
		<g id="XMLID_30_">
			<path id="XMLID_44_" class="st1" d="M103.7,100.5v5h-2V93.5h4.1c1.3,0,2.4,0.3,3.1,0.9c0.7,0.6,1.1,1.5,1.1,2.6
				c0,0.6-0.2,1.1-0.5,1.6c-0.3,0.4-0.8,0.8-1.4,1.1c0.7,0.2,1.2,0.6,1.5,1c0.3,0.5,0.4,1.1,0.4,1.8v1c0,0.3,0,0.7,0.1,1
				c0.1,0.3,0.2,0.6,0.4,0.8v0.2h-2.1c-0.2-0.2-0.4-0.5-0.4-0.8c-0.1-0.4-0.1-0.8-0.1-1.1v-1c0-0.6-0.2-1.1-0.5-1.5
				c-0.4-0.4-0.8-0.5-1.4-0.5H103.7z M103.7,98.9h2c0.8,0,1.4-0.2,1.7-0.5c0.4-0.3,0.5-0.8,0.5-1.4c0-0.6-0.2-1.1-0.5-1.4
				c-0.4-0.3-0.9-0.5-1.6-0.5h-2.1V98.9z"/>
			<path id="XMLID_42_" class="st1" d="M119,100.1h-4.7v3.8h5.5v1.6h-7.5V93.5h7.4v1.6h-5.5v3.4h4.7V100.1z"/>
			<path id="XMLID_37_" class="st1" d="M127.9,102.7h-4.2l-0.9,2.8h-2.1l4.2-11.9h1.9l4.1,11.9h-2.1L127.9,102.7z M124.2,101h3.1
				l-1.5-4.7h0L124.2,101z"/>
			<path id="XMLID_35_" class="st1" d="M134.3,103.9h5.6v1.6h-7.6V93.5h2V103.9z"/>
			<path id="XMLID_33_" class="st1" d="M148.3,95.1h-3.7v10.3h-2V95.1h-3.6v-1.6h9.3V95.1z"/>
			<path id="XMLID_31_" class="st1" d="M154,99.3l2.9-5.8h2.2l-4.1,7.8v4.2h-2v-4.3l-4.1-7.6h2.2L154,99.3z"/>
		</g>
		<g id="XMLID_27_">
			<line id="XMLID_29_" class="st1" x1="95.7" y1="101.1" x2="31.1" y2="101.1"/>
			<rect id="XMLID_28_" x="31.1" y="100" class="st1" width="64.6" height="2.2"/>
		</g>
		<g id="XMLID_22_">
			<line id="XMLID_24_" class="st1" x1="228.6" y1="101.1" x2="164" y2="101.1"/>
			<rect id="XMLID_23_" x="164" y="100" class="st1" width="64.6" height="2.2"/>
		</g>
	</g>
</g>
</svg>
